<?xml version="1.0" encoding="UTF-8"?>
<svg width="20px" height="20px" viewBox="0 0 20 20" version="1.1" xmlns="http://www.w3.org/2000/svg" xmlns:xlink="http://www.w3.org/1999/xlink">
    <!-- Generator: sketchtool 48.2 (47327) - http://www.bohemiancoding.com/sketch -->
    <title>DC515072-1DA3-4DBD-A142-954A5B19036A</title>
    <desc>Created with sketchtool.</desc>
    <defs></defs>
    <g id="desktop_sem_cartao" stroke="none" stroke-width="1" fill="none" fill-rule="evenodd" transform="translate(-824.000000, -446.000000)">
        <g id="Group-Copy-3" transform="translate(824.000000, 440.000000)" fill="#EF5778">
            <g id="icon/alert" transform="translate(0.000000, 6.000000)">
                <path d="M10,20 C4.4771525,20 0,15.5228475 0,10 C0,4.4771525 4.4771525,0 10,0 C15.5228475,0 20,4.4771525 20,10 C20,15.5228475 15.5228475,20 10,20 Z M11.2073681,12.3586021 L11.5863083,3.59010225 L8.42259828,3.59010225 L8.80153848,12.3586021 L11.2073681,12.3586021 Z M8.33447266,15.0904965 C8.33447266,15.3019991 8.37412879,15.498811 8.45344225,15.6809382 C8.53275571,15.8630654 8.64584914,16.0202212 8.79272591,16.1524103 C8.93960269,16.2845994 9.11291469,16.3888804 9.31266711,16.4652563 C9.51241953,16.5416322 9.73566889,16.5798196 9.98242188,16.5798196 C10.2291749,16.5798196 10.4524242,16.5416322 10.6521766,16.4652563 C10.8519291,16.3888804 11.0252411,16.2845994 11.1721178,16.1524103 C11.3189946,16.0202212 11.432088,15.8630654 11.5114015,15.6809382 C11.590715,15.498811 11.6303711,15.3019991 11.6303711,15.0904965 C11.6303711,14.878994 11.590715,14.682182 11.5114015,14.5000548 C11.432088,14.3179276 11.3189946,14.1607718 11.1721178,14.0285827 C11.0252411,13.8963936 10.8519291,13.7921127 10.6521766,13.7157368 C10.4524242,13.6393608 10.2291749,13.6011734 9.98242188,13.6011734 C9.73566889,13.6011734 9.51241953,13.6393608 9.31266711,13.7157368 C9.11291469,13.7921127 8.93960269,13.8963936 8.79272591,14.0285827 C8.64584914,14.1607718 8.53275571,14.3179276 8.45344225,14.5000548 C8.37412879,14.682182 8.33447266,14.878994 8.33447266,15.0904965 Z" id="Combined-Shape"></path>
            </g>
        </g>
    </g>
</svg>