<?xml version="1.0" encoding="UTF-8"?>
<svg width="28px" height="28px" viewBox="0 0 28 28" version="1.1" xmlns="http://www.w3.org/2000/svg" xmlns:xlink="http://www.w3.org/1999/xlink">
    <!-- Generator: sketchtool 48.2 (47327) - http://www.bohemiancoding.com/sketch -->
    <title>CB962A40-1E18-4496-A417-AECD99107CE7</title>
    <desc>Created with sketchtool.</desc>
    <defs></defs>
    <g id="Symbols" stroke="none" stroke-width="1" fill="none" fill-rule="evenodd">
        <g id="icon/card/blue" fill="#474971" fill-rule="nonzero">
            <path d="M9.23410884,21.0489016 L25.2004945,21.0489077 C25.4225386,21.0500115 25.6357236,20.9633689 25.7921522,20.8084462 C25.9485807,20.6535235 26.0351348,20.4433124 26.0323303,20.2191168 L26.0323303,12.3284343 L26.0323979,6.77293725 C26.0361041,6.55492393 25.9500664,6.34468379 25.7938123,6.18993382 C25.6375582,6.03518386 25.4243398,5.94904866 25.1980484,5.95109843 L2.79950548,5.95109235 C2.5774614,5.94998849 2.36427637,6.03663115 2.20784784,6.19155383 C2.05141931,6.34647652 1.96486521,6.55668758 1.96766968,6.7808832 L1.96760214,20.2270627 C1.96389588,20.4450761 2.04993355,20.6553162 2.20618768,20.8100662 C2.36244181,20.9648161 2.57566024,21.0509513 2.80195156,21.0489016 L9.23410884,21.0489016 Z M9.23410884,21.9999443 L2.80645312,21.9999237 C2.32373423,22.0043401 1.8596706,21.8168694 1.51958808,21.4800607 C1.17950557,21.1432519 0.992247104,20.6856704 1.00024614,20.2191168 L1.00028369,6.78680863 C0.994282996,6.31343817 1.18199601,5.8575458 1.52124824,5.52155934 C1.86050047,5.18557289 2.32284257,4.99766782 2.80195156,5.00005571 L25.1935469,5.0000763 C25.6762658,4.99565985 26.1403294,5.18313058 26.4804119,5.51993933 C26.8204944,5.85674808 27.0077529,6.31432957 26.9997539,6.7808832 L26.9997539,12.3284343 L26.9997163,20.2131914 C27.005717,20.6865618 26.818004,21.1424542 26.4787518,21.4784407 C26.1394995,21.8144271 25.6771574,22.0023322 25.1980484,21.9999443 L9.23410884,21.9999443 Z M1.48395791,8.68534624 L26.5160421,8.68534624 L26.5160421,11.8951154 L1.48395791,11.8951154 L1.48395791,8.68534624 Z M3.66066088,18.4488697 C3.39351425,18.4488697 3.17694911,18.2359715 3.17694911,17.9733483 C3.17694911,17.7107251 3.39351425,17.4978269 3.66066088,17.4978269 L5.83736385,17.4978269 C6.10451049,17.4978269 6.32107562,17.7107251 6.32107562,17.9733483 C6.32107562,18.2359715 6.10451049,18.4488697 5.83736385,18.4488697 L3.66066088,18.4488697 Z M8.01406683,18.4488697 C7.74692019,18.4488697 7.53035505,18.2359715 7.53035505,17.9733483 C7.53035505,17.7107251 7.74692019,17.4978269 8.01406683,17.4978269 L15.6325272,17.4978269 C15.8996739,17.4978269 16.116239,17.7107251 16.116239,17.9733483 C16.116239,18.2359715 15.8996739,18.4488697 15.6325272,18.4488697 L8.01406683,18.4488697 Z" id="Combined-Shape"></path>
        </g>
    </g>
</svg>