<svg version="1" xmlns="http://www.w3.org/2000/svg" width="840" height="840" viewBox="0 0 630.000000 630.000000"><path d="M0 315v315h630V0H0v315zm556-135.1c0 66.6-.1 72.9-1.6 73.5-.9.4-33.8.6-73 .6l-71.4-.1V107h146v72.9zm-287.4 2.9c47.5 8.9 78.6 33.9 90.8 73 4.1 13.1 5.6 24 5.6 40.7 0 44-14.9 76.2-45.5 98.6-13.7 10-31.3 16.8-54 21.1-9.7 1.8-16.3 2.1-56.2 2.5l-45.3.5V511H91V242l36.3-.2 36.2-.3.3-30.8.2-30.9 46.8.5c41.8.4 47.9.7 57.8 2.5z"/><path d="M435 132.2c0 .2 0 21.9-.1 48.3v48l48.5.3 48.6.2v-97h-48.5c-26.7 0-48.5.1-48.5.2zm72.7 48l-.2 24.3-24.2.3-24.3.2v-49h48.9l-.2 24.2zM164 299.4V357h37.8c33.5 0 38.8-.2 47.2-2 29.8-6.1 45-25 45-56.1 0-28.5-12.8-46.1-39.1-54-7-2.1-9.7-2.3-49.1-2.7l-41.8-.4v57.6z"/></svg>